<?xml version="1.0" encoding="UTF-8"?>
<svg id="Layer_1" data-name="Layer 1" xmlns="http://www.w3.org/2000/svg" viewBox="0 0 355.07 355.2">
  <path d="M355.07,355.2h-72.5l-1.5-1.5v-138c0-19-12.84-37.04-32.46-38.54-38.91-2.98-48.74,21.21-50.53,55.55v122.49h-73.01V118.2h70v32c4.18-1.04,6.08-7.03,9.03-10.47,20.49-23.9,50.95-30.51,81.33-26.39,46.41,6.29,64.18,37.69,68.63,81.37l1.01,160.49Z"/>
  <polygon points="79.07 118.2 79.07 353.7 77.57 355.2 5.07 355.2 5.07 118.2 79.07 118.2"/>
  <path d="M48.46,85.09C-10.09,92.01-17.13,7.23,35.83.46c57.99-7.43,66.19,78.3,12.63,84.63Z"/>
</svg>