<?xml version="1.0" encoding="UTF-8"?>
<svg id="Layer_2" data-name="Layer 2" xmlns="http://www.w3.org/2000/svg" viewBox="0 0 188.58 241.27">
  <g id="Layer_1-2" data-name="Layer 1">
    <g>
      <path d="M188.58,161.02v-10.24c0-3.09-.16-6.18-.48-9.19l-.05-.47c-3.83-35.52-28.9-65.41-62.92-75.56l4.91-12.47-40.54-12.26,7.43,8.96c2.87,3.45,6,7.29,7.56,9.27l-1.13,2.86c-1.23-.05-2.48-.08-3.72-.08-49.04,0-88.93,39.9-88.93,88.94,0,26.14,11.31,50.62,31.12,67.57l-3.68,9.34L0,240.42l56.01.85,4.23-10.75c12.19,6.03,25.72,9.2,39.4,9.2,26.5,0,51.42-11.69,68.39-32.08l2.21-2.66-15.02-12.83-2.27,2.74c-13.2,15.94-32.63,25.09-53.31,25.09-11.22,0-22.27-2.73-32.14-7.91l20.08-51.05h101ZM117.87,84.01c26.58,7.21,46.21,29.35,50.22,56.53h-72.45l22.23-56.53ZM49.61,198.56c-9.9-10.33-16.31-23.4-18.41-37.54h33.18l-14.77,37.54ZM31.2,140.54c2.32-15.63,9.93-29.99,21.68-40.78,11.79-10.8,26.82-17.14,42.7-18.06l-23.15,58.84H31.2Z"/>
      <path d="M133.34,14.61c0,8.07-6.55,14.61-14.61,14.61s-14.61-6.54-14.61-14.61S110.66,0,118.73,0s14.61,6.54,14.61,14.61Z"/>
    </g>
  </g>
</svg>