<svg width="86" height="89" viewBox="0 0 86 89" fill="none" xmlns="http://www.w3.org/2000/svg">
<path d="M42.8628 0C47.2942 0 50.8872 3.56357 50.8872 7.95898C50.887 11.0904 47.9255 28.2934 45.4312 37.9365C46.9956 38.6996 48.2461 40.0055 48.938 41.6094C57.2982 35.9669 71.5325 27.8356 74.3745 26.7988C78.5036 25.293 83.0816 27.4466 84.6001 31.6094C86.1185 35.7726 84.0019 40.3689 79.8726 41.875C76.8504 42.9768 58.8169 46.2285 49.0542 47.0928C48.0074 49.8387 45.3514 51.79 42.2378 51.79C39.1027 51.79 36.4305 49.8121 35.3989 47.0361C25.509 46.0922 8.17652 42.9532 5.21924 41.875C1.08991 40.3689 -1.02673 35.7726 0.491699 31.6094C2.01023 27.4466 6.58817 25.293 10.7173 26.7988C13.5065 27.8164 27.269 35.6687 35.6821 41.2939C36.4859 39.6513 37.8895 38.357 39.6069 37.6924C37.126 28.0059 34.2136 11.0642 34.2134 7.95898C34.2134 3.56372 37.8066 0.000241309 42.2378 0C42.3423 5.08533e-06 42.4467 0.00387849 42.5503 0.0078125C42.654 0.00386614 42.7581 6.10713e-06 42.8628 0Z" fill="#FFF3E5"/>
<path d="M65.6295 84.1109C69.465 81.8917 70.79 77.0078 68.589 73.2033C66.3867 69.3974 45.2408 44.4999 43.3467 45.5957C41.4536 46.6937 52.4968 77.4348 54.698 81.24C56.8991 85.0446 61.7937 86.33 65.6295 84.1109Z" fill="#FFF3E5"/>
<path d="M18.8225 84.6021C14.987 82.3829 13.6626 77.4996 15.8636 73.6952C18.0656 69.8896 39.2098 44.9928 41.1045 46.0876C42.9987 47.1834 31.9553 77.9255 29.7539 81.7312C27.5528 85.5358 22.6582 86.8212 18.8225 84.6021Z" fill="#FFF3E5"/>
</svg>
